<?xml version="1.0" encoding="UTF-8" standalone="no"?>
<!DOCTYPE svg PUBLIC "-//W3C//DTD SVG 1.1//EN" "http://www.w3.org/Graphics/SVG/1.1/DTD/svg11.dtd">
<svg width="100%" height="100%" viewBox="0 0 400 400" version="1.1" xmlns="http://www.w3.org/2000/svg" xmlns:xlink="http://www.w3.org/1999/xlink" xml:space="preserve" xmlns:serif="http://www.serif.com/" style="fill-rule:evenodd;clip-rule:evenodd;stroke-linecap:round;stroke-linejoin:round;stroke-miterlimit:1.5;">
    <g transform="matrix(1,0,0,1,-72.6534,-47.7235)">
        <g>
            <g transform="matrix(0.674278,0,0,0.674278,88.8091,80.6889)">
                <path d="M335.875,495.835C335.875,495.835 394.118,473.433 379.977,419.795C365.836,366.157 315.611,296.03 358.034,256C400.457,215.97 456.533,294.964 483.84,227.673C511.147,160.382 512,0 512,0C512,0 385.341,-0.533 338.042,10.683C290.743,21.898 251.733,43.353 273.189,76.023C294.644,108.694 262.461,152.58 243.931,160.382C225.402,168.183 190.781,178.911 135.192,152.092C79.604,125.273 61.562,120.884 42.057,168.183C22.552,215.483 38.644,264.244 61.074,264.244C83.505,264.244 97.158,245.227 125.928,247.178C154.697,249.128 185.905,254.136 214.187,278.029C242.469,301.923 270.263,346.784 270.263,377.504C270.263,408.224 247.415,411.855 249.295,445.77C250.566,468.69 260.379,512.453 335.875,495.835Z" style="fill:rgb(58,50,78);"/>
                <path d="M335.875,495.835C335.875,495.835 394.118,473.433 379.977,419.795C365.836,366.157 315.611,296.03 358.034,256C400.457,215.97 456.533,294.964 483.84,227.673C511.147,160.382 512,0 512,0C512,0 385.341,-0.533 338.042,10.683C290.743,21.898 251.733,43.353 273.189,76.023C294.644,108.694 262.461,152.58 243.931,160.382C225.402,168.183 190.781,178.911 135.192,152.092C79.604,125.273 61.562,120.884 42.057,168.183C22.552,215.483 38.644,264.244 61.074,264.244C83.505,264.244 97.158,245.227 125.928,247.178C154.697,249.128 185.905,254.136 214.187,278.029C242.469,301.923 270.263,346.784 270.263,377.504C270.263,408.224 247.415,411.855 249.295,445.77C250.566,468.69 260.379,512.453 335.875,495.835ZM334.066,489.905C299.666,497.387 280.085,491.932 269.061,481.201C258.275,470.702 256.034,455.687 255.465,445.428C254.619,430.167 259.422,421.743 264.351,413.655C270.353,403.806 276.442,394.337 276.442,377.504C276.442,345.388 247.742,298.288 218.175,273.309C188.729,248.433 156.299,243.043 126.346,241.012C110.732,239.954 99.195,244.469 88.543,249.365C79.551,253.498 71.351,258.065 61.074,258.065C58.082,258.065 55.327,256.613 52.83,254.28C49.648,251.307 46.946,246.975 44.792,241.712C37.655,224.277 36.79,197.165 47.77,170.539C54.721,153.684 60.953,143.822 69.711,140.034C75.94,137.339 83.237,138.011 92.508,140.731C103.229,143.876 116.211,149.795 132.507,157.658C190.685,185.726 226.937,174.242 246.329,166.077C256.51,161.79 270.688,147.814 279.127,130.198C287.712,112.28 290.345,90.89 278.354,72.631C274.081,66.126 272.576,60.241 273.675,54.84C274.798,49.316 278.507,44.468 283.795,40.049C296.196,29.685 316.878,22.052 339.468,16.695C380.112,7.058 479.855,6.227 505.75,6.176C505.295,36.123 501.957,166.594 478.114,225.349C473.385,237.002 467.91,243.781 461.482,247.139C451.677,252.261 440.276,249.453 428.264,246.107C418.95,243.512 409.32,240.382 399.735,238.845C383.879,236.301 368.167,237.943 353.793,251.506C335.175,269.073 332.424,291.825 337.295,316.689C343.977,350.803 365.487,389.072 374.002,421.37C386.151,467.451 339.014,487.898 334.072,489.903L334.066,489.905Z" style="fill:rgb(36,35,83);"/>
            </g>
            <g transform="matrix(0.674278,0,0,0.674278,88.8091,80.6889)">
                <path d="M41.06,228.663C42.856,237.858 60.049,238.107 67.901,228.292C85.455,206.349 67.901,180.506 67.901,180.506C67.901,180.506 43.52,139.058 103.985,160.026C164.45,180.993 224.288,231.56 272.653,163.927C319.695,98.144 288.225,64.954 288.225,64.954C288.225,64.954 268.877,48.247 324.389,33.732C394.314,15.449 344.869,46.898 327.802,88.346C327.802,88.346 290.255,183.919 298.545,211.713C298.545,211.713 394.118,207.325 446.293,164.414C498.469,121.504 483.654,177.547 478.964,190.258C474.033,203.62 472.19,228.726 438.088,224.585C438.088,224.585 366.39,209.271 336.579,252.844C294.083,314.957 344.381,401.397 344.381,401.397C344.381,401.397 391.68,484.292 328.29,442.845C264.899,401.397 266.362,461.862 286.842,478.928C292.021,483.245 296.982,486.781 301.508,489.652C310.185,495.158 320.546,495.551 335.116,491.475C335.116,491.475 394.118,473.433 379.977,419.795C365.836,366.157 315.611,296.03 358.034,256C400.457,215.97 456.533,294.964 483.84,227.673C511.147,160.382 512,0 512,0C512,0 385.341,-0.533 338.042,10.683C290.743,21.898 251.733,43.353 273.189,76.023C294.644,108.694 262.461,152.58 243.931,160.382C225.402,168.183 190.781,178.911 135.192,152.092C79.604,125.273 61.562,120.884 42.057,168.183C32.95,190.267 37.62,211.05 41.06,228.663Z" style="fill:rgb(205,164,58);"/>
                <path d="M353.703,34.705C353.39,35.417 353.018,36.199 352.633,36.862C351.131,39.447 349.068,42.425 346.708,45.74C339.023,56.537 328.42,70.614 322.088,85.993C322.075,86.024 322.063,86.055 322.05,86.086C322.05,86.086 303.457,133.442 295.171,171.494C291.382,188.89 289.941,204.485 292.623,213.479C293.434,216.199 295.993,218.016 298.828,217.886C298.828,217.886 396.733,213.175 450.219,169.187C459.789,161.316 466.822,156.949 472.043,155.295C474.405,154.546 475.975,154.083 476.882,155.202C477.583,156.068 477.866,157.309 478.082,158.691C478.418,160.843 478.406,163.295 478.207,165.841C477.542,174.375 474.738,183.859 473.167,188.119C471.472,192.71 470.166,198.72 467.726,204.412C465.766,208.984 463.029,213.406 458.079,216.089C453.618,218.507 447.531,219.472 439.093,218.481C436.112,217.884 410.679,213.083 384.067,217.997C364.492,221.611 344.405,230.463 331.479,249.355C313.542,275.572 311.113,305.865 314.846,332.816C320.225,371.647 338.354,403.317 339.021,404.472C339.339,405.028 349.996,423.751 353.894,438.322C354.631,441.078 355.127,443.657 355.158,445.871C355.169,446.681 354.957,447.785 354.867,448.214C354.659,448.242 354.347,448.275 354.114,448.267C353.331,448.243 352.444,448.086 351.438,447.823C346.793,446.611 340.399,443.379 331.671,437.673C318.033,428.755 307.131,424.344 298.679,422.946C288.451,421.255 281.206,423.734 276.3,428.117C270.522,433.279 267.819,441.54 268.079,450.58C268.434,462.922 274.312,476.531 282.886,483.676C288.293,488.182 293.473,491.873 298.197,494.87C308.167,501.195 320.042,502.108 336.781,497.426C336.829,497.413 336.876,497.399 336.923,497.384C336.923,497.384 401.524,477.285 385.952,418.22C377.498,386.152 356.058,348.184 349.423,314.313C345.415,293.852 346.954,274.951 362.275,260.494C373.356,250.039 385.554,249.087 397.777,251.048C406.91,252.513 416.073,255.54 424.947,258.012C440.221,262.267 454.737,264.606 467.204,258.093C475.624,253.695 483.371,245.262 489.566,229.997C517.15,162.022 518.179,0.033 518.179,0.033C518.188,-1.607 517.544,-3.183 516.39,-4.349C515.236,-5.514 513.666,-6.172 512.026,-6.179C512.026,-6.179 384.311,-6.639 336.616,4.67C311.907,10.529 289.434,19.23 275.87,30.566C268.174,36.997 263.198,44.338 261.564,52.377C259.904,60.538 261.567,69.585 268.023,79.416C277.488,93.828 274.757,110.715 267.981,124.858C261.06,139.305 249.883,151.171 241.533,154.686C223.867,162.125 190.878,172.097 137.878,146.526C117.266,136.582 101.636,129.709 89.174,127.159C79.663,125.213 71.758,125.683 64.804,128.691C53.899,133.407 44.999,144.84 36.344,165.828C26.704,189.206 31.354,211.202 34.995,229.847L34.995,229.847C36.194,235.986 41.13,240.168 47.909,241.41C55.92,242.876 66.533,239.894 72.726,232.153C91.894,208.193 75.028,180.202 73.174,177.283C72.855,176.724 70.515,172.542 69.568,167.981C69.137,165.902 68.675,163.648 69.952,162.081C71.118,160.651 73.404,160.265 76.982,160.283C82.709,160.312 90.752,161.977 101.96,165.864C132.387,176.415 162.677,194.36 191.424,201.213C222.285,208.569 251.552,204.059 277.68,167.521C302.538,132.759 306.315,106.493 304.215,89.033C301.939,70.115 292.709,60.702 292.709,60.702C292.567,60.553 292.419,60.411 292.263,60.276C292.263,60.276 291.089,59.266 291.141,57.724C291.171,56.865 291.626,55.939 292.485,54.875C296.361,50.077 305.84,44.969 325.952,39.711C336.705,36.899 344.515,35.285 349.992,34.765C351.274,34.643 352.618,34.654 353.703,34.705ZM41.06,228.663C42.856,237.858 60.049,238.107 67.901,228.292C85.455,206.349 67.901,180.506 67.901,180.506C67.901,180.506 43.52,139.058 103.985,160.026C164.45,180.993 224.288,231.56 272.653,163.927C319.695,98.144 288.225,64.954 288.225,64.954C288.225,64.954 268.877,48.247 324.389,33.732C394.314,15.449 344.869,46.898 327.802,88.346C327.802,88.346 290.255,183.919 298.545,211.713C298.545,211.713 394.118,207.325 446.293,164.414C498.469,121.504 483.654,177.547 478.964,190.258C474.033,203.62 472.19,228.726 438.088,224.585C438.088,224.585 366.39,209.271 336.579,252.844C294.083,314.957 344.381,401.397 344.381,401.397C344.381,401.397 391.68,484.292 328.29,442.845C264.899,401.397 266.362,461.862 286.842,478.928C292.021,483.245 296.982,486.781 301.508,489.652C310.185,495.158 320.546,495.551 335.116,491.475C335.116,491.475 394.118,473.433 379.977,419.795C365.836,366.157 315.611,296.03 358.034,256C400.457,215.97 456.533,294.964 483.84,227.673C511.147,160.382 512,0 512,0C512,0 385.341,-0.533 338.042,10.683C290.743,21.898 251.733,43.353 273.189,76.023C294.644,108.694 262.461,152.58 243.931,160.382C225.402,168.183 190.781,178.911 135.192,152.092C79.604,125.273 61.562,120.884 42.057,168.183C32.95,190.267 37.62,211.05 41.06,228.663Z" style="fill:rgb(163,109,36);"/>
            </g>
            <g transform="matrix(0.674278,0,0,0.674278,88.8091,80.6889)">
                <path d="M298.179,210.819C298.179,210.819 433.406,26.66 512,-0.004" style="fill:none;stroke:rgb(163,109,36);stroke-width:6.18px;"/>
            </g>
        </g>
    </g>
</svg>
